<?xml version="1.0" encoding="UTF-8"?>
<svg xmlns="http://www.w3.org/2000/svg" id="icons" viewBox="0 0 64 64" width="512" height="512"><path d="M1.001,19a1.00006,1.00006,0,0,1-.43653-1.90039l31-15a1.0002,1.0002,0,1,1,.8711,1.80078l-31,15A.99767.99767,0,0,1,1.001,19Z"/><path d="M62.999,19a.99767.99767,0,0,1-.43457-.09961l-31-15a1.0002,1.0002,0,1,1,.8711-1.80078l31,15A1.00006,1.00006,0,0,1,62.999,19Z"/><path d="M1.001,23a1.00006,1.00006,0,0,1-.43653-1.90039l31-15a1.0002,1.0002,0,1,1,.8711,1.80078l-31,15A.99767.99767,0,0,1,1.001,23Z"/><path d="M62.999,23a.99767.99767,0,0,1-.43457-.09961l-31-15a1.0002,1.0002,0,0,1,.8711-1.80078l31,15A1.00006,1.00006,0,0,1,62.999,23Z"/><path d="M1,23a.99974.99974,0,0,1-1-1V18a1,1,0,0,1,2,0v4A.99974.99974,0,0,1,1,23Z"/><path d="M63,23a.99974.99974,0,0,1-1-1V18a1,1,0,0,1,2,0v4A.99974.99974,0,0,1,63,23Z"/><path d="M4,62a.99943.99943,0,0,1-1-1V20.54883a1,1,0,0,1,2,0V61A.99943.99943,0,0,1,4,62Z"/><path d="M60,62a.99943.99943,0,0,1-1-1V20.54883a1,1,0,1,1,2,0V61A.99943.99943,0,0,1,60,62Z"/><path d="M60,62H4a1,1,0,0,1,0-2H60a1,1,0,0,1,0,2Z"/><path d="M16,11.74219a.99974.99974,0,0,1-1-1V6a1,1,0,0,1,2,0v4.74219A.99974.99974,0,0,1,16,11.74219Z"/><path d="M9,15.12891a.99974.99974,0,0,1-1-1V6a1,1,0,0,1,2,0v8.12891A.99974.99974,0,0,1,9,15.12891Z"/><path d="M17,7H8A.99974.99974,0,0,1,7,6V3A.99974.99974,0,0,1,8,2h9a.99974.99974,0,0,1,1,1V6A.99974.99974,0,0,1,17,7ZM9,5h7V4H9Z"/><path d="M63,62H1a1,1,0,0,1,0-2H63a1,1,0,0,1,0,2Z"/><path d="M47,56H17a4.004,4.004,0,0,1-4-4,1,1,0,0,1,2,0,2.0026,2.0026,0,0,0,2,2H47a2.0026,2.0026,0,0,0,2-2,1,1,0,0,1,2,0A4.004,4.004,0,0,1,47,56Z"/><path d="M51,30a.99974.99974,0,0,1-1-1,2.00229,2.00229,0,0,0-2-2H16a2.00229,2.00229,0,0,0-2,2,1,1,0,0,1-2,0,4.00427,4.00427,0,0,1,4-4H48a4.00427,4.00427,0,0,1,4,4A.99974.99974,0,0,1,51,30Z"/><path d="M30,39H13a1,1,0,0,1,0-2H30a1,1,0,0,1,0,2Z"/><path d="M13,39a.99943.99943,0,0,1-1-1V29a1,1,0,0,1,2,0v9A.99943.99943,0,0,1,13,39Z"/><path d="M14,53a.99943.99943,0,0,1-1-1V38a1,1,0,0,1,2,0V52A.99943.99943,0,0,1,14,53Z"/><path d="M51,39a.99943.99943,0,0,1-1-1V29a1,1,0,0,1,2,0v9A.99943.99943,0,0,1,51,39Z"/><path d="M50,53a.99943.99943,0,0,1-1-1V38a1,1,0,0,1,2,0V52A.99943.99943,0,0,1,50,53Z"/><path d="M34,42H30a.99943.99943,0,0,1-1-1V35a.99943.99943,0,0,1,1-1h4a.99943.99943,0,0,1,1,1v6A.99943.99943,0,0,1,34,42Zm-3-2h2V36H31Z"/><path d="M51,39H34a1,1,0,0,1,0-2H51a1,1,0,0,1,0,2Z"/><path d="M28,27H25a.99974.99974,0,0,1-1-1V22a.99974.99974,0,0,1,1-1h3a.99974.99974,0,0,1,1,1v4A.99974.99974,0,0,1,28,27Zm-2-2h1V23H26Z"/><path d="M39,27H36a.99974.99974,0,0,1-1-1V22a.99974.99974,0,0,1,1-1h3a.99974.99974,0,0,1,1,1v4A.99974.99974,0,0,1,39,27Zm-2-2h1V23H37Z"/><path d="M39,23H25a.99974.99974,0,0,1-1-1V19a.99974.99974,0,0,1,1-1H39a.99974.99974,0,0,1,1,1v3A.99974.99974,0,0,1,39,23ZM26,21H38V20H26Z"/></svg>
