<svg id="Capa_1" enable-background="new 0 0 512 512" height="512" viewBox="0 0 512 512" width="512" xmlns="http://www.w3.org/2000/svg"><g><path d="m512 171.735c0-13.036-8.361-24.152-20-28.28v-85.175c11.639-4.128 20-15.244 20-28.28 0-16.542-13.458-30-30-30h-328c-16.542 0-30 13.458-30 30 0 13.036 8.361 24.152 20 28.28v85.176c-11.639 4.128-20 15.244-20 28.281 0 2.122.225 4.192.646 6.191-1.95-.489-3.975-.753-6.043-.758-.02-.001-.039-.001-.06-.001-7.683 0-14.805 3.466-19.547 9.514l-72.179 92.047c-.16.204-.311.413-.453.627-17.008 20.975-26.364 47.362-26.364 74.425 0 32.102 12.648 62.136 35.616 84.571 22.277 21.762 51.503 33.647 82.572 33.647.952 0 1.906-.012 2.861-.034 1.59-.037 3.175-.114 4.755-.214-1.166 3.2-1.804 6.65-1.804 10.248 0 16.542 13.458 30 30 30h328c16.542 0 30-13.458 30-30 0-13.036-8.361-24.152-20-28.28v-85.176c11.639-4.128 20-15.244 20-28.281 0-13.036-8.361-24.151-20-28.279v-111.97c11.639-4.127 20-15.243 20-28.279zm-30 10h-36v-20h36c5.514 0 10 4.486 10 10.001 0 5.514-4.486 9.999-10 9.999zm-253.877 128.53c-4.377-11.063-10.422-21.479-18.004-30.84-.024-.031-.048-.062-.072-.094l-46.047-59.292v-18.303h234.883c1.931 11.168 11.661 19.666 23.381 19.666s21.45-8.497 23.381-19.666h26.355v108.529zm96.763-184.293c13.781 0 24.953-11.172 24.953-24.953v-6.659c0-13.445 10.899-24.344 24.344-24.344s24.344 10.899 24.344 24.344v47.375h-234.527v-81.735h135.933v41.019c0 13.781 11.172 24.953 24.953 24.953zm121.114-65.972h26v81.735h-26zm46-30c0 5.514-4.486 10-10 10h-36v-20h36c5.514 0 10 4.486 10 10zm-338-10h145.933v20h-145.933c-5.514 0-10-4.486-10-10s4.486-10 10-10zm0 141.735h244.528v20h-244.528c-5.514 0-10-4.486-10-10s4.486-10 10-10zm-33.419 290.238c-26.692.623-51.915-9.293-70.989-27.926-19.083-18.641-29.592-43.595-29.592-70.265 0-22.781 7.976-44.982 22.458-62.512.266-.322.509-.657.729-1.004l71.547-91.243c1.269-1.618 2.918-1.858 3.822-1.854.883.003 2.552.248 3.814 1.873l71.668 92.282c.113.156.23.309.352.458 14.698 18.034 22.519 40.814 22.022 64.146-.538 25.229-10.756 49.068-28.773 67.125-18.016 18.058-41.832 28.328-67.058 28.92zm81.217-14.793c18.333-18.374 29.951-41.746 33.488-66.915h236.714v81.735h-288.172c6.39-4.3 12.412-9.25 17.97-14.82zm280.202 54.82h-328c-5.514 0-10-4.486-10-10s4.486-10 10-10h328c5.514 0 10 4.486 10 10s-4.486 10-10 10zm0-141.735h-245.625c-.204-6.75-.98-13.44-2.312-20h247.937c5.514 0 10 4.486 10 10s-4.486 10-10 10z"/><path d="m118.218 299.904c12.618 0 22.884 8.902 22.884 19.844 0 5.522 4.477 10 10 10s10-4.478 10-10c0-18.771-14.047-34.541-32.884-38.739v-3.519c0-5.522-4.477-10-10-10s-10 4.478-10 10v3.519c-18.837 4.198-32.883 19.968-32.883 38.739 0 21.97 19.237 39.843 42.883 39.843 12.618 0 22.884 8.902 22.884 19.844s-10.266 19.844-22.884 19.844-22.883-8.902-22.883-19.844c0-5.522-4.477-10-10-10s-10 4.478-10 10c0 18.771 14.047 34.541 32.883 38.739v1.946c0 5.522 4.477 10 10 10s10-4.478 10-10v-1.946c18.837-4.198 32.884-19.968 32.884-38.739 0-21.97-19.238-39.844-42.884-39.844-12.618 0-22.883-8.901-22.883-19.843s10.265-19.844 22.883-19.844z"/></g></svg>